<mxfile host="app.diagrams.net" agent="Mozilla/5.0 (Macintosh; Intel Mac OS X 10_15_7) AppleWebKit/537.36 (KHTML, like Gecko) Chrome/127.0.0.0 Safari/537.36" version="24.7.6">
  <diagram id="C5RBs43oDa-KdzZeNtuy" name="Page-1">
    <mxGraphModel dx="1059" dy="613" grid="1" gridSize="10" guides="1" tooltips="1" connect="1" arrows="1" fold="1" page="1" pageScale="1" pageWidth="1169" pageHeight="827" math="0" shadow="0">
      <root>
        <mxCell id="WIyWlLk6GJQsqaUBKTNV-0" />
        <mxCell id="WIyWlLk6GJQsqaUBKTNV-1" parent="WIyWlLk6GJQsqaUBKTNV-0" />
        <mxCell id="WIyWlLk6GJQsqaUBKTNV-2" value="" style="rounded=0;html=1;jettySize=auto;orthogonalLoop=1;fontSize=11;endArrow=block;endFill=0;endSize=8;strokeWidth=1;shadow=0;labelBackgroundColor=none;edgeStyle=orthogonalEdgeStyle;noEdgeStyle=1;orthogonal=1;entryX=0;entryY=0.5;entryDx=0;entryDy=0;" parent="WIyWlLk6GJQsqaUBKTNV-1" source="WIyWlLk6GJQsqaUBKTNV-3" target="WIyWlLk6GJQsqaUBKTNV-6" edge="1">
          <mxGeometry relative="1" as="geometry">
            <mxPoint x="150" y="154" as="targetPoint" />
          </mxGeometry>
        </mxCell>
        <mxCell id="WIyWlLk6GJQsqaUBKTNV-3" value="Participant enters access code" style="rounded=1;whiteSpace=wrap;html=1;fontSize=12;glass=0;strokeWidth=1;shadow=0;" parent="WIyWlLk6GJQsqaUBKTNV-1" vertex="1">
          <mxGeometry y="133.89" width="110" height="40" as="geometry" />
        </mxCell>
        <mxCell id="WIyWlLk6GJQsqaUBKTNV-4" value="Yes" style="rounded=0;html=1;jettySize=auto;orthogonalLoop=1;fontSize=11;endArrow=block;endFill=0;endSize=8;strokeWidth=1;shadow=0;labelBackgroundColor=none;edgeStyle=orthogonalEdgeStyle;noEdgeStyle=1;orthogonal=1;exitX=1;exitY=0.5;exitDx=0;exitDy=0;" parent="WIyWlLk6GJQsqaUBKTNV-1" edge="1">
          <mxGeometry x="0.0275" y="12" relative="1" as="geometry">
            <mxPoint as="offset" />
            <mxPoint x="250" y="153.66" as="sourcePoint" />
            <mxPoint x="310" y="153.77" as="targetPoint" />
          </mxGeometry>
        </mxCell>
        <mxCell id="WIyWlLk6GJQsqaUBKTNV-5" value="No" style="edgeStyle=orthogonalEdgeStyle;rounded=0;html=1;jettySize=auto;orthogonalLoop=1;fontSize=11;endArrow=block;endFill=0;endSize=8;strokeWidth=1;shadow=0;labelBackgroundColor=none;noEdgeStyle=1;orthogonal=1;entryX=0.5;entryY=0;entryDx=0;entryDy=0;" parent="WIyWlLk6GJQsqaUBKTNV-1" source="WIyWlLk6GJQsqaUBKTNV-6" target="WIyWlLk6GJQsqaUBKTNV-7" edge="1">
          <mxGeometry x="0.0444" y="-10" relative="1" as="geometry">
            <mxPoint as="offset" />
          </mxGeometry>
        </mxCell>
        <mxCell id="WIyWlLk6GJQsqaUBKTNV-6" value="Access code valid?" style="rhombus;whiteSpace=wrap;html=1;shadow=0;fontFamily=Helvetica;fontSize=12;align=center;strokeWidth=1;spacing=6;spacingTop=-4;" parent="WIyWlLk6GJQsqaUBKTNV-1" vertex="1">
          <mxGeometry x="150" y="108.89" width="110" height="90" as="geometry" />
        </mxCell>
        <mxCell id="WIyWlLk6GJQsqaUBKTNV-7" value="Completion/Redirect display page" style="rounded=1;whiteSpace=wrap;html=1;fontSize=12;glass=0;strokeWidth=1;shadow=0;" parent="WIyWlLk6GJQsqaUBKTNV-1" vertex="1">
          <mxGeometry x="145" y="243.8888888888889" width="120" height="40" as="geometry" />
        </mxCell>
        <mxCell id="WIyWlLk6GJQsqaUBKTNV-11" value="Participant fills out survey" style="rounded=1;whiteSpace=wrap;html=1;fontSize=12;glass=0;strokeWidth=1;shadow=0;" parent="WIyWlLk6GJQsqaUBKTNV-1" vertex="1">
          <mxGeometry x="310" y="133.89" width="90" height="40" as="geometry" />
        </mxCell>
        <mxCell id="ncKVCQ-ecz6-2B_zBw4r-5" value="Survey complete?" style="rhombus;whiteSpace=wrap;html=1;shadow=0;fontFamily=Helvetica;fontSize=12;align=center;strokeWidth=1;spacing=6;spacingTop=-4;" vertex="1" parent="WIyWlLk6GJQsqaUBKTNV-1">
          <mxGeometry x="440" y="108.89" width="100" height="90" as="geometry" />
        </mxCell>
        <mxCell id="ncKVCQ-ecz6-2B_zBw4r-6" value="" style="rounded=0;html=1;jettySize=auto;orthogonalLoop=1;fontSize=11;endArrow=block;endFill=0;endSize=8;strokeWidth=1;shadow=0;labelBackgroundColor=none;edgeStyle=orthogonalEdgeStyle;noEdgeStyle=1;orthogonal=1;entryX=0;entryY=0.5;entryDx=0;entryDy=0;exitX=1;exitY=0.5;exitDx=0;exitDy=0;" edge="1" parent="WIyWlLk6GJQsqaUBKTNV-1" source="WIyWlLk6GJQsqaUBKTNV-11" target="ncKVCQ-ecz6-2B_zBw4r-5">
          <mxGeometry relative="1" as="geometry">
            <mxPoint x="400" y="153.65" as="sourcePoint" />
            <mxPoint x="440" y="153.65" as="targetPoint" />
          </mxGeometry>
        </mxCell>
        <mxCell id="ncKVCQ-ecz6-2B_zBw4r-7" value="No" style="edgeStyle=orthogonalEdgeStyle;rounded=0;html=1;jettySize=auto;orthogonalLoop=1;fontSize=11;endArrow=block;endFill=0;endSize=8;strokeWidth=1;shadow=0;labelBackgroundColor=none;noEdgeStyle=1;orthogonal=1;entryX=0.5;entryY=0;entryDx=0;entryDy=0;" edge="1" parent="WIyWlLk6GJQsqaUBKTNV-1" target="ncKVCQ-ecz6-2B_zBw4r-8">
          <mxGeometry x="0.0444" y="-10" relative="1" as="geometry">
            <mxPoint as="offset" />
            <mxPoint x="490" y="198.89" as="sourcePoint" />
          </mxGeometry>
        </mxCell>
        <mxCell id="ncKVCQ-ecz6-2B_zBw4r-8" value="No data stored" style="rounded=1;whiteSpace=wrap;html=1;fontSize=12;glass=0;strokeWidth=1;shadow=0;" vertex="1" parent="WIyWlLk6GJQsqaUBKTNV-1">
          <mxGeometry x="430" y="243.7788888888889" width="120" height="40" as="geometry" />
        </mxCell>
        <mxCell id="ncKVCQ-ecz6-2B_zBw4r-9" value="" style="rounded=0;html=1;jettySize=auto;orthogonalLoop=1;fontSize=11;endArrow=block;endFill=0;endSize=8;strokeWidth=1;shadow=0;labelBackgroundColor=none;edgeStyle=orthogonalEdgeStyle;noEdgeStyle=1;orthogonal=1;exitX=1;exitY=0.5;exitDx=0;exitDy=0;entryX=0;entryY=0.5;entryDx=0;entryDy=0;" edge="1" parent="WIyWlLk6GJQsqaUBKTNV-1" source="ncKVCQ-ecz6-2B_zBw4r-5" target="ncKVCQ-ecz6-2B_zBw4r-11">
          <mxGeometry relative="1" as="geometry">
            <mxPoint x="540" y="153.64" as="sourcePoint" />
            <mxPoint x="590" y="154" as="targetPoint" />
          </mxGeometry>
        </mxCell>
        <mxCell id="ncKVCQ-ecz6-2B_zBw4r-10" value="&lt;font style=&quot;font-size: 11px;&quot;&gt;Yes&lt;/font&gt;" style="text;html=1;align=center;verticalAlign=middle;resizable=0;points=[];autosize=1;strokeColor=none;fillColor=none;" vertex="1" parent="WIyWlLk6GJQsqaUBKTNV-1">
          <mxGeometry x="540" y="130" width="40" height="30" as="geometry" />
        </mxCell>
        <mxCell id="ncKVCQ-ecz6-2B_zBw4r-12" style="edgeStyle=orthogonalEdgeStyle;rounded=0;orthogonalLoop=1;jettySize=auto;html=1;exitX=0.5;exitY=1;exitDx=0;exitDy=0;" edge="1" parent="WIyWlLk6GJQsqaUBKTNV-1" source="ncKVCQ-ecz6-2B_zBw4r-11">
          <mxGeometry relative="1" as="geometry">
            <mxPoint x="560" y="360" as="targetPoint" />
            <Array as="points">
              <mxPoint x="635" y="320" />
              <mxPoint x="560" y="320" />
            </Array>
          </mxGeometry>
        </mxCell>
        <mxCell id="ncKVCQ-ecz6-2B_zBw4r-13" style="edgeStyle=orthogonalEdgeStyle;rounded=0;orthogonalLoop=1;jettySize=auto;html=1;exitX=0.5;exitY=1;exitDx=0;exitDy=0;" edge="1" parent="WIyWlLk6GJQsqaUBKTNV-1" source="ncKVCQ-ecz6-2B_zBw4r-11">
          <mxGeometry relative="1" as="geometry">
            <mxPoint x="634.7586206896551" y="360" as="targetPoint" />
          </mxGeometry>
        </mxCell>
        <mxCell id="ncKVCQ-ecz6-2B_zBw4r-14" style="edgeStyle=orthogonalEdgeStyle;rounded=0;orthogonalLoop=1;jettySize=auto;html=1;exitX=0.5;exitY=1;exitDx=0;exitDy=0;" edge="1" parent="WIyWlLk6GJQsqaUBKTNV-1" source="ncKVCQ-ecz6-2B_zBw4r-11">
          <mxGeometry relative="1" as="geometry">
            <mxPoint x="710" y="360" as="targetPoint" />
            <Array as="points">
              <mxPoint x="635" y="320" />
              <mxPoint x="710" y="320" />
              <mxPoint x="710" y="360" />
            </Array>
          </mxGeometry>
        </mxCell>
        <mxCell id="ncKVCQ-ecz6-2B_zBw4r-11" value="Visualizations displayed" style="rounded=1;whiteSpace=wrap;html=1;fontSize=12;glass=0;strokeWidth=1;shadow=0;" vertex="1" parent="WIyWlLk6GJQsqaUBKTNV-1">
          <mxGeometry x="590" y="133.89" width="90" height="40" as="geometry" />
        </mxCell>
        <mxCell id="ncKVCQ-ecz6-2B_zBw4r-15" value="Start timestamp" style="shape=cylinder3;whiteSpace=wrap;html=1;boundedLbl=1;backgroundOutline=1;size=15;" vertex="1" parent="WIyWlLk6GJQsqaUBKTNV-1">
          <mxGeometry x="522.5" y="360" width="75" height="70" as="geometry" />
        </mxCell>
        <mxCell id="ncKVCQ-ecz6-2B_zBw4r-18" value="Survey data" style="shape=cylinder3;whiteSpace=wrap;html=1;boundedLbl=1;backgroundOutline=1;size=15;" vertex="1" parent="WIyWlLk6GJQsqaUBKTNV-1">
          <mxGeometry x="597.5" y="360" width="75" height="70" as="geometry" />
        </mxCell>
        <mxCell id="ncKVCQ-ecz6-2B_zBw4r-19" value="Completion timestamp" style="shape=cylinder3;whiteSpace=wrap;html=1;boundedLbl=1;backgroundOutline=1;size=15;" vertex="1" parent="WIyWlLk6GJQsqaUBKTNV-1">
          <mxGeometry x="672.5" y="360" width="75" height="70" as="geometry" />
        </mxCell>
        <mxCell id="ncKVCQ-ecz6-2B_zBw4r-20" value="&lt;font style=&quot;font-size: 11px;&quot;&gt;Send to AWS&lt;/font&gt;" style="text;html=1;align=center;verticalAlign=middle;resizable=0;points=[];autosize=1;strokeColor=none;fillColor=none;" vertex="1" parent="WIyWlLk6GJQsqaUBKTNV-1">
          <mxGeometry x="550" y="213.78" width="90" height="30" as="geometry" />
        </mxCell>
        <mxCell id="ncKVCQ-ecz6-2B_zBw4r-21" value="" style="rounded=0;html=1;jettySize=auto;orthogonalLoop=1;fontSize=11;endArrow=block;endFill=0;endSize=8;strokeWidth=1;shadow=0;labelBackgroundColor=none;edgeStyle=orthogonalEdgeStyle;noEdgeStyle=1;orthogonal=1;exitX=1;exitY=0.5;exitDx=0;exitDy=0;entryX=0;entryY=0.5;entryDx=0;entryDy=0;" edge="1" parent="WIyWlLk6GJQsqaUBKTNV-1">
          <mxGeometry relative="1" as="geometry">
            <mxPoint x="680" y="153.62" as="sourcePoint" />
            <mxPoint x="730" y="153.62" as="targetPoint" />
          </mxGeometry>
        </mxCell>
        <mxCell id="ncKVCQ-ecz6-2B_zBw4r-24" style="edgeStyle=orthogonalEdgeStyle;rounded=0;orthogonalLoop=1;jettySize=auto;html=1;exitX=0.5;exitY=1;exitDx=0;exitDy=0;" edge="1" parent="WIyWlLk6GJQsqaUBKTNV-1" source="ncKVCQ-ecz6-2B_zBw4r-23" target="ncKVCQ-ecz6-2B_zBw4r-25">
          <mxGeometry relative="1" as="geometry">
            <mxPoint x="784.9090909090908" y="240" as="targetPoint" />
          </mxGeometry>
        </mxCell>
        <mxCell id="ncKVCQ-ecz6-2B_zBw4r-23" value="Participant enters completion code" style="rounded=1;whiteSpace=wrap;html=1;fontSize=12;glass=0;strokeWidth=1;shadow=0;" vertex="1" parent="WIyWlLk6GJQsqaUBKTNV-1">
          <mxGeometry x="730" y="133.89" width="110" height="40" as="geometry" />
        </mxCell>
        <mxCell id="ncKVCQ-ecz6-2B_zBw4r-25" value="Completion code" style="shape=cylinder3;whiteSpace=wrap;html=1;boundedLbl=1;backgroundOutline=1;size=15;" vertex="1" parent="WIyWlLk6GJQsqaUBKTNV-1">
          <mxGeometry x="747.5" y="223.78" width="75" height="66.22" as="geometry" />
        </mxCell>
        <mxCell id="ncKVCQ-ecz6-2B_zBw4r-26" value="&lt;font style=&quot;font-size: 11px;&quot;&gt;Send to AWS&lt;/font&gt;" style="text;html=1;align=center;verticalAlign=middle;resizable=0;points=[];autosize=1;strokeColor=none;fillColor=none;" vertex="1" parent="WIyWlLk6GJQsqaUBKTNV-1">
          <mxGeometry x="700" y="183.78" width="90" height="30" as="geometry" />
        </mxCell>
      </root>
    </mxGraphModel>
  </diagram>
</mxfile>
